<?xml version="1.0" standalone="no"?><!DOCTYPE svg PUBLIC "-//W3C//DTD SVG 1.1//EN" "http://www.w3.org/Graphics/SVG/1.1/DTD/svg11.dtd"><svg t="1709690084731" class="icon" viewBox="0 0 1024 1024" version="1.1" xmlns="http://www.w3.org/2000/svg" p-id="5232" xmlns:xlink="http://www.w3.org/1999/xlink" width="200" height="200"><path d="M105.472 1024S52.736 620.032 92.16 344.064C120.32 115.2 161.28 14.848 255.488 8.192c99.328-0.512 105.472 93.696 75.264 198.144 146.432-9.216 244.224-27.136 244.224-27.136s23.04-194.048 182.272-159.744c107.008 31.232 65.536 202.752 65.536 202.752S762.368 510.464 980.48 1024H105.472z" fill="#B8C4DC" p-id="5233"></path><path d="M192 32.768s66.56-15.36 96.256 32.256-19.968 151.04-19.968 151.04l61.952-10.24s35.84-120.832 0-163.84-91.136-45.056-138.24-9.216zM665.088 27.648s144.896-13.824 105.472 169.984c0 0-86.016 478.72 75.264 826.368h134.144S814.08 655.36 816.64 377.856c0 0-2.048-97.792 5.632-155.648 14.848-56.832 31.744-257.024-157.184-194.56z" fill="#A8B6CC" opacity=".34" p-id="5234"></path><path d="M86.528 370.176s205.824-25.6 301.568 16.896c54.784 18.944 107.008 0 107.008 0S593.92 344.576 819.2 368.64c8.192 4.096 3.584 45.568 3.072 46.592 0 0-0.512 3.072-6.144 4.608-5.632 2.048-59.392 10.24-60.928 28.16-1.536 17.92 2.048 109.056-22.016 134.656s-59.392 47.616-130.56 48.128-111.616-34.816-125.44-85.504c-13.824-50.688-8.704-96.768-41.984-97.792-27.648-0.512-27.648 58.88-34.304 83.456s-14.848 101.888-136.704 99.328c-128.512-9.728-149.504-65.024-143.872-169.472-1.024-39.936-35.84-33.792-35.84-33.792l2.048-56.832z" p-id="5235"></path><path d="M375.808 669.184l77.824-4.608v70.656s0 31.232-38.912 32.768c-36.352 0-38.912-29.184-38.912-29.184v-69.632z" fill="#ED6260" opacity=".6" p-id="5236"></path><path d="M375.808 720.384s39.936-29.696 77.824-19.968v34.304s-1.024 30.72-35.84 32.768-42.496-20.992-42.496-28.672 0.512-18.432 0.512-18.432z" fill="#FF9CAA" opacity=".6" p-id="5237"></path></svg>